<svg width="553" height="359" xmlns="http://www.w3.org/2000/svg" xmlns:svg="http://www.w3.org/2000/svg" xmlns:xlink="http://www.w3.org/1999/xlink">
 <g display="inline">
  <title>xcx</title>
  <line stroke="#000000" fill="none" stroke-width="2" x1="14.73706" y1="139.2925" x2="512.68154" y2="139.2925" id="svg_1"/>
  <line stroke-dasharray="2,2" id="svg_6" y2="162.2925" x2="163.18152" y1="120.2925" x1="163.18152" stroke-width="2" stroke="#000000" fill="none"/>
  <path stroke="#ff0000" id="svg_9" d="m365.36893,113.02769c0.00157,-7.55478 -1.22782,-13.67934 -2.7459,-13.6796l-95.52325,-0.0164c-1.51808,-0.00026 -2.74747,-6.12483 -2.7459,-13.67961l0,0c-0.00157,7.55478 -1.23352,13.67893 -2.75161,13.67867l-95.52325,-0.0164l0,0c-1.5181,-0.00026 -2.75003,6.12388 -2.75161,13.67866" stroke-linecap="null" stroke-linejoin="null" stroke-dasharray="null" stroke-width="2" fill="none"/>
  <line stroke-dasharray="2,2" id="svg_15" y2="160.84806" x2="113.40374" y1="118.84806" x1="113.40374" stroke-width="2" stroke="#000000" fill="none"/>
  <line stroke="#000000" stroke-dasharray="2,2" id="svg_2" y2="170.95917" x2="263.9593" y1="116.95917" x1="263.9593" stroke-width="2" fill="none"/>
  <line stroke-dasharray="2,2" id="svg_5" y2="163.95917" x2="464.07041" y1="121.95917" x1="464.07041" stroke-width="2" stroke="#000000" fill="none"/>
  <line stroke-dasharray="2,2" x1="63.18152" x2="63.18152" id="svg_7" y2="159.2925" y1="117.2925" stroke-width="2" stroke="#000000" fill="none"/>
  <line stroke-dasharray="2,2" id="svg_11" y2="161.73695" x2="313.40374" y1="119.73695" x1="313.40374" stroke-width="2" stroke="#000000" fill="none"/>
  <line stroke-dasharray="2,2" id="svg_12" y2="161.73695" x2="364.07041" y1="119.73695" x1="364.07041" stroke-width="2" stroke="#000000" fill="none"/>
  <line stroke-dasharray="2,2" id="svg_13" y2="162.62584" x2="413.84818" y1="120.62584" x1="413.84818" stroke-width="2" stroke="#000000" fill="none"/>
  <line stroke-dasharray="2,2" id="svg_14" y2="162.62584" x2="213.84818" y1="120.62584" x1="213.84818" stroke-width="2" stroke="#000000" fill="none"/>
  <line stroke-dasharray="2,2" id="svg_17" y2="162.2925" x2="163.18152" y1="120.2925" x1="163.18152" stroke-width="2" stroke="#000000" fill="none"/>
  <image x="211.18152" y="359.2925" width="0" height="0" id="svg_3" opacity="0.5" xlink:href="images/logo.png"/>
  <path fill="none" stroke-width="0" stroke-dasharray="null" stroke-linejoin="null" stroke-linecap="null" d="m54.59775,266.155c-0.06695,0 -0.12123,-0.00905 -0.12123,-0.0202l0,-0.7021c0,-0.01115 -0.05427,-0.0202 -0.12122,-0.0202l0,0c0.06695,0 0.12122,-0.00904 0.12122,-0.0202l0,-0.70209l0,0c0,-0.01116 0.05428,-0.02021 0.12123,-0.02021" id="svg_27" stroke="#000000"/>
  <path fill="none" stroke-width="0" stroke-dasharray="null" stroke-linejoin="null" stroke-linecap="null" d="m36.68775,1.485c-0.06695,0 -0.12123,-0.00904 -0.12123,-0.0202l0,-0.7021c0,-0.01115 -0.05427,-0.0202 -0.12122,-0.0202l0,0c0.06695,0 0.12122,-0.00904 0.12122,-0.0202l0,-0.70209l0,0c0,-0.01116 0.05428,-0.02021 0.12123,-0.02021" id="svg_29" stroke="#000000"/>
  <polyline fill="none" stroke="#000000" stroke-width="0" stroke-dasharray="null" stroke-linejoin="null" stroke-linecap="round" opacity="0.5" points="93.18152236938477,266.2924995422363 " id="svg_30"/>
  <polyline fill="none" stroke="#000000" stroke-width="0" stroke-dasharray="null" stroke-linejoin="null" stroke-linecap="round" opacity="0.5" points="98.18152236938477,295.2924995422363 " id="svg_31"/>
  <polyline fill="none" stroke="#000000" stroke-width="0" stroke-dasharray="null" stroke-linejoin="null" stroke-linecap="round" opacity="0.5" points="312.18152236938477,79.29249954223633 " id="svg_32"/>
  <polyline fill="none" stroke="#000000" stroke-width="0" stroke-dasharray="null" stroke-linejoin="null" stroke-linecap="round" opacity="0.5" points="428.18152236938477,181.29249954223633 " id="svg_33"/>
  <polyline fill="none" stroke="#000000" stroke-width="0" stroke-dasharray="null" stroke-linejoin="null" stroke-linecap="round" opacity="0.5" points="428.18152236938477,181.29249954223633 " id="svg_34"/>
  <polyline fill="none" stroke="#000000" stroke-width="0" stroke-dasharray="null" stroke-linejoin="null" stroke-linecap="round" opacity="0.5" points="428.18152236938477,181.29249954223633 " id="svg_35"/>
  <text font-weight="bold" stroke="#0000bf" transform="matrix(0.369346479136224,0,0,0.7037547099056011,32.242043663100524,45.23776876534077) " fill="#000000" stroke-width="0" stroke-dasharray="null" stroke-linejoin="null" stroke-linecap="null" x="-32.94371" y="101.90522" font-size="24" font-family="serif" text-anchor="middle" xml:space="preserve" id="svg_36">South pole</text>
  <text stroke="#000000" xml:space="preserve" text-anchor="middle" font-family="serif" font-size="24" id="svg_4" y="191.2925" x="264.18152" stroke-linecap="null" stroke-linejoin="null" stroke-dasharray="null" stroke-width="0" fill="#000000">0</text>
  <text stroke="#000000" transform="matrix(0.6953125,0,0,0.6944444179534912,38.84765625,68.21528369188309) " fill="#000000" stroke-width="0" stroke-dasharray="2,2" stroke-linejoin="null" stroke-linecap="null" x="102.41275" y="161.9012" font-size="24" font-family="serif" text-anchor="middle" xml:space="preserve" id="svg_23">-49</text>
  <text stroke="#0000bf" transform="matrix(0.6380510330200195,0,0,0.5904823571343911,21.59251806139946,83.12436317019142) " fill="#0000ff" stroke-width="0" stroke-dasharray="null" stroke-linejoin="null" stroke-linecap="null" x="1.69873" y="118.68299" id="svg_8" font-size="24" font-family="serif" text-anchor="middle" xml:space="preserve" font-weight="bold" font-style="italic">lat</text>
  <text id="svg_19" stroke="#000000" transform="matrix(0.6953125,0,0,0.6944444179534912,38.84765625,68.21528369188309) " fill="#000000" stroke-width="0" stroke-dasharray="2,2" stroke-linejoin="null" stroke-linecap="null" x="175.04195" y="161.92493" font-size="24" font-family="serif" text-anchor="middle" xml:space="preserve">-48</text>
  <text id="svg_21" stroke="#000000" transform="matrix(0.6953125,0,0,0.6944444179534912,38.84765625,68.21528369188309) " fill="#000000" stroke-width="0" stroke-dasharray="2,2" stroke-linejoin="null" stroke-linecap="null" x="248.39605" y="164.08493" font-size="24" font-family="serif" text-anchor="middle" xml:space="preserve">-47</text>
  <text id="svg_22" stroke="#000000" transform="matrix(0.6953125,0,0,0.6944444179534912,38.84765625,68.21528369188309) " fill="#000000" stroke-width="0" stroke-dasharray="2,2" stroke-linejoin="null" stroke-linecap="null" x="536.39605" y="161.92493" font-size="24" font-family="serif" text-anchor="middle" xml:space="preserve">49</text>
  <text stroke="#000000" transform="matrix(0.6953125,0,0,0.6944444179534912,38.84765625,68.21528369188309) " fill="#000000" stroke-width="0" stroke-dasharray="2,2" stroke-linejoin="null" stroke-linecap="null" x="466.69709" y="162.10272" font-size="24" font-family="serif" text-anchor="middle" xml:space="preserve" id="svg_16">48</text>
  <text stroke="#000000" transform="matrix(0.6953125,0,0,0.6944444179534912,38.84765625,68.21528369188309) " fill="#000000" stroke-width="0" stroke-dasharray="2,2" stroke-linejoin="null" stroke-linecap="null" x="391.91058" y="163.54272" font-size="24" font-family="serif" text-anchor="middle" xml:space="preserve" id="svg_18">47</text>
  <line id="svg_25" y2="213.2925" x2="498.18152" y1="211.2925" x1="163.18152" stroke-linecap="null" stroke-linejoin="null" stroke-dasharray="null" stroke-width="2" stroke="#007f00" fill="none"/>
  <text font-weight="bold" stroke="#00007f" transform="matrix(0.5045168694024879,0,0,0.5802839771914865,274.35756169256575,110.9568556115536) " xml:space="preserve" text-anchor="middle" font-family="serif" font-size="24" id="svg_28" y="155.67502" x="396.99132" stroke-linecap="null" stroke-linejoin="null" stroke-dasharray="null" stroke-width="0" fill="#007f00">lat &gt; -48</text>
  <line fill="none" stroke="#007fff" stroke-width="2" stroke-dasharray="null" stroke-linejoin="null" stroke-linecap="null" x1="364.18152" y1="239.2925" x2="62.18152" y2="239.2925" id="svg_10"/>
  <text font-weight="bold" stroke="#00ff00" transform="matrix(0.41329261483690094,0,0,0.6297599364627511,146.08450584671854,100.76388088133318) " xml:space="preserve" text-anchor="middle" font-family="serif" font-size="24" y="207.44458" x="-159.67174" stroke-linecap="null" stroke-linejoin="null" stroke-dasharray="null" stroke-width="0" fill="#007fff" id="svg_26">lat &lt; 48</text>
  <text font-weight="bold" stroke="#00ff00" transform="matrix(0.5670598957446097,0,0,0.687195159741978,214.08277712439747,89.23338300748524) " xml:space="preserve" text-anchor="middle" font-family="serif" font-size="24" y="-12.47229" x="192.86724" stroke-linecap="null" stroke-linejoin="null" stroke-dasharray="null" stroke-width="0" fill="#007fff" id="svg_37">lat &lt; 48</text>
  <text font-weight="bold" stroke="#00007f" transform="matrix(0.5713300293076047,0,0,0.6133202886242465,66.67259774843322,82.90212865984942) " xml:space="preserve" text-anchor="middle" font-family="serif" font-size="24" y="-3.23777" x="212.10703" stroke-linecap="null" stroke-linejoin="null" stroke-dasharray="null" stroke-width="0" fill="#007f00" id="svg_38">lat &gt; -48</text>
  <text fill="#ff0000" stroke-width="0" stroke-dasharray="null" stroke-linejoin="null" stroke-linecap="null" x="252.35945" y="29.60979" id="svg_39" font-size="24" font-family="serif" text-anchor="middle" xml:space="preserve" transform="matrix(0.557830599649929,0,0,0.5667695494630192,123.05661205763182,62.79252856966264) " stroke="#ff0000">AND</text>
  <text font-weight="bold" stroke="#ff0000" transform="matrix(0.440104347658945,0,0,0.6346153914928435,171.928330176154,81.61538228392601) " fill="#000000" stroke-width="0" stroke-dasharray="null" stroke-linejoin="null" stroke-linecap="null" x="210.25273" y="235.18818" id="svg_40" font-size="24" font-family="serif" text-anchor="middle" xml:space="preserve">OR</text>
  <text font-weight="bold" stroke="#0000bf" transform="matrix(0.4061308788839409,0,0,0.6299414858363277,168.09853754120954,66.52283570564997) " fill="#000000" stroke-width="0" stroke-dasharray="null" stroke-linejoin="null" stroke-linecap="null" x="892.64879" y="80.14158" font-size="24" font-family="serif" text-anchor="middle" xml:space="preserve" id="svg_41">North pole</text>
  <text font-weight="bold" id="svg_20" stroke="#000000" transform="matrix(0.5802363237609061,0,0,0.716953325866458,37.07598992885495,19.08423853929444) " fill="#000000" stroke-width="0" stroke-dasharray="2,2" stroke-linejoin="null" stroke-linecap="null" x="-42.59375" y="161.25964" font-size="24" font-family="serif" text-anchor="middle" xml:space="preserve">-90</text>
  <text font-weight="bold" id="svg_24" stroke="#000000" transform="matrix(0.5645276124281953,0,0,0.7148439258028356,-242.15815209349773,71.44048026997037) " fill="#000000" stroke-width="0" stroke-dasharray="2,2" stroke-linejoin="null" stroke-linecap="null" x="1358.09741" y="83.18541" font-size="24" font-family="serif" text-anchor="middle" xml:space="preserve">90</text>
  <path stroke="#000000" transform="rotate(90.48198699951172 78.22244262695312,100.83409881591797) " id="svg_42" d="m73.34006,100.67204l4.88238,-67.35515l4.88238,67.35515l-2.44119,0l0,67.67925l-4.88238,0l0,-67.67925l-2.44119,0z" stroke-linecap="null" stroke-linejoin="null" stroke-dasharray="null" stroke-width="0" fill="#ff0000"/>
  <path id="svg_45" stroke="#000000" transform="rotate(-90.48198699951172 444.4418029785157,100.04112243652347) " d="m439.55942,99.87908l4.88239,-67.35514l4.88238,67.35514l-2.44119,0l0,67.67925l-4.88238,0l0,-67.67925l-2.4412,0z" stroke-linecap="null" stroke-linejoin="null" stroke-dasharray="null" stroke-width="0" fill="#ff0000"/>
  <text font-weight="bold" id="svg_46" stroke="#ff0000" transform="matrix(0.4984098873101174,0,0,0.49283150773108275,13.655351460867685,32.57961032862571) " fill="#ff0000" stroke-width="0" stroke-dasharray="2,2" stroke-linejoin="null" stroke-linecap="null" x="74.28228" y="110.74963" font-size="24" font-family="serif" text-anchor="middle" xml:space="preserve">42</text>
  <text id="svg_48" font-weight="bold" stroke="#ff0000" transform="matrix(0.4984098873101174,0,0,0.49283150773108275,373.7002390035923,176.0194182204714) " fill="#ff0000" stroke-width="0" stroke-dasharray="2,2" stroke-linejoin="null" stroke-linecap="null" x="159.91767" y="-183.88961" font-size="24" font-family="serif" text-anchor="middle" xml:space="preserve">42</text>
 </g>
</svg>