<?xml version="1.0" encoding="UTF-8"?>

<svg width="640" height="380" xmlns="http://www.w3.org/2000/svg" xmlns:svg="http://www.w3.org/2000/svg" xmlns:xlink="http://www.w3.org/1999/xlink">
 <!-- Created with SVG-edit - http://svg-edit.googlecode.com/ -->
 <g display="inline">
  <title>xcx</title>
  <line stroke="#000000" fill="none" stroke-width="2" x1="89.80556" y1="199" x2="532.25" y2="199" id="svg_1"/>
  <line stroke-dasharray="2,2" id="svg_6" y2="222" x2="200" y1="180" x1="200" stroke-width="2" stroke="#000000" fill="none"/>
  <path stroke="#ff0000" id="svg_9" d="m402.18741,172.73519c0.00157,-7.55478 -1.22782,-13.67934 -2.7459,-13.6796l-95.52325,-0.0164c-1.51808,-0.00026 -2.74747,-6.12483 -2.7459,-13.67961l0,0c-0.00157,7.55478 -1.23352,13.67893 -2.75161,13.67867l-95.52325,-0.0164l0,0c-1.5181,-0.00026 -2.75003,6.12388 -2.75161,13.67866" stroke-linecap="null" stroke-linejoin="null" stroke-dasharray="null" stroke-width="2" fill="none"/>
  <line stroke-dasharray="2,2" id="svg_15" y2="220.55556" x2="150.22222" y1="178.55556" x1="150.22222" stroke-width="2" stroke="#000000" fill="none"/>
  <line stroke="#000000" stroke-dasharray="2,2" id="svg_2" y2="230.666672" x2="300.77778" y1="176.66667" x1="300.77778" stroke-width="2" fill="none"/>
  <line stroke-dasharray="2,2" id="svg_5" y2="223.66667" x2="500.88889" y1="181.66667" x1="500.88889" stroke-width="2" stroke="#000000" fill="none"/>
  <line stroke-dasharray="2,2" x1="100" x2="100" id="svg_7" y2="219" y1="177" stroke-width="2" stroke="#000000" fill="none"/>
  <line stroke-dasharray="2,2" id="svg_11" y2="221.44445" x2="350.22222" y1="179.44445" x1="350.22222" stroke-width="2" stroke="#000000" fill="none"/>
  <line stroke-dasharray="2,2" id="svg_12" y2="221.44445" x2="400.88889" y1="179.44445" x1="400.88889" stroke-width="2" stroke="#000000" fill="none"/>
  <line stroke-dasharray="2,2" id="svg_13" y2="222.33334" x2="450.66666" y1="180.33334" x1="450.66666" stroke-width="2" stroke="#000000" fill="none"/>
  <line stroke-dasharray="2,2" id="svg_14" y2="222.33334" x2="250.66666" y1="180.33334" x1="250.66666" stroke-width="2" stroke="#000000" fill="none"/>
  <line stroke-dasharray="2,2" id="svg_17" y2="222" x2="200" y1="180" x1="200" stroke-width="2" stroke="#000000" fill="none"/>
  <image x="248" y="419" width="0" height="0" id="svg_3" opacity="0.5" xlink:href="images/logo.png"/>
  <path fill="none" stroke-width="0" stroke-dasharray="null" stroke-linejoin="null" stroke-linecap="null" d="m91.41623,325.8625c-0.06695,0 -0.12123,-0.00905 -0.12123,-0.0202l0,-0.7021c0,-0.01115 -0.05427,-0.0202 -0.12122,-0.0202l0,0c0.06695,0 0.12122,-0.00904 0.12122,-0.0202l0,-0.70209l0,0c0,-0.01116 0.05428,-0.02021 0.12123,-0.02021" id="svg_27" stroke="#000000"/>
  <path fill="none" stroke-width="0" stroke-dasharray="null" stroke-linejoin="null" stroke-linecap="null" d="m73.50623,61.1925c-0.06695,0 -0.12123,-0.00904 -0.12123,-0.0202l0,-0.7021c0,-0.01115 -0.05427,-0.0202 -0.12122,-0.0202l0,0c0.06695,0 0.12122,-0.00904 0.12122,-0.0202l0,-0.70209l0,0c0,-0.01116 0.05428,-0.02021 0.12123,-0.02021" id="svg_29" stroke="#000000"/>
  <polyline fill="none" stroke="#000000" stroke-width="0" stroke-dasharray="null" stroke-linejoin="null" stroke-linecap="round" opacity="0.5" points="130,326 " id="svg_30"/>
  <polyline fill="none" stroke="#000000" stroke-width="0" stroke-dasharray="null" stroke-linejoin="null" stroke-linecap="round" opacity="0.5" points="135,355 " id="svg_31"/>
  <polyline fill="none" stroke="#000000" stroke-width="0" stroke-dasharray="null" stroke-linejoin="null" stroke-linecap="round" opacity="0.5" points="349,139 " id="svg_32"/>
  <polyline fill="none" stroke="#000000" stroke-width="0" stroke-dasharray="null" stroke-linejoin="null" stroke-linecap="round" opacity="0.5" points="465,241 " id="svg_33"/>
  <polyline fill="none" stroke="#000000" stroke-width="0" stroke-dasharray="null" stroke-linejoin="null" stroke-linecap="round" opacity="0.5" points="465,241 " id="svg_34"/>
  <polyline fill="none" stroke="#000000" stroke-width="0" stroke-dasharray="null" stroke-linejoin="null" stroke-linecap="round" opacity="0.5" points="465,241 " id="svg_35"/>
  <text stroke="#0000bf" transform="matrix(0.569407105974955,0,0,0.7734893759191063,23.256280745066213,28.676858108740255) " fill="#000000" stroke-width="0" stroke-dasharray="null" stroke-linejoin="null" stroke-linecap="null" x="132.76445" y="144.020965" font-size="24" font-family="serif" text-anchor="middle" xml:space="preserve" id="svg_36">South pole</text>
  <text xml:space="preserve" text-anchor="middle" font-family="serif" font-size="24" id="svg_4" y="251" x="301" stroke-linecap="null" stroke-linejoin="null" stroke-dasharray="null" stroke-width="0" stroke="#000000" fill="#000000">0</text>
  <text stroke="#000000" transform="matrix(0.6953125,0,0,0.6944444179534912,38.84765625,68.21528369188309) " fill="#000000" stroke-width="0" stroke-dasharray="2,2" stroke-linejoin="null" stroke-linecap="null" x="155.365169" y="247.88" font-size="24" font-family="serif" text-anchor="middle" xml:space="preserve" id="svg_23">-49</text>
  <text fill="#0000ff" stroke-width="0" stroke-dasharray="null" stroke-linejoin="null" stroke-linecap="null" x="72.333333" y="195.666667" id="svg_8" font-size="24" font-family="serif" text-anchor="middle" xml:space="preserve" font-weight="bold" font-style="italic" stroke="#0000bf">lat</text>
  <text id="svg_19" stroke="#000000" transform="matrix(0.6953125,0,0,0.6944444179534912,38.84765625,68.21528369188309) " fill="#000000" stroke-width="0" stroke-dasharray="2,2" stroke-linejoin="null" stroke-linecap="null" x="227.994366" y="247.903731" font-size="24" font-family="serif" text-anchor="middle" xml:space="preserve">-48</text>
  <text id="svg_21" stroke="#000000" transform="matrix(0.6953125,0,0,0.6944444179534912,38.84765625,68.21528369188309) " fill="#000000" stroke-width="0" stroke-dasharray="2,2" stroke-linejoin="null" stroke-linecap="null" x="301.348468" y="250.063731" font-size="24" font-family="serif" text-anchor="middle" xml:space="preserve">-47</text>
  <text id="svg_22" stroke="#000000" transform="matrix(0.6953125,0,0,0.6944444179534912,38.84765625,68.21528369188309) " fill="#000000" stroke-width="0" stroke-dasharray="2,2" stroke-linejoin="null" stroke-linecap="null" x="589.348468" y="247.903731" font-size="24" font-family="serif" text-anchor="middle" xml:space="preserve">49</text>
  <text stroke="#000000" transform="matrix(0.6953125,0,0,0.6944444179534912,38.84765625,68.21528369188309) " fill="#000000" stroke-width="0" stroke-dasharray="2,2" stroke-linejoin="null" stroke-linecap="null" x="519.649513" y="248.081523" font-size="24" font-family="serif" text-anchor="middle" xml:space="preserve" id="svg_16">48</text>
  <text stroke="#000000" transform="matrix(0.6953125,0,0,0.6944444179534912,38.84765625,68.21528369188309) " fill="#000000" stroke-width="0" stroke-dasharray="2,2" stroke-linejoin="null" stroke-linecap="null" x="444.862996" y="249.521523" font-size="24" font-family="serif" text-anchor="middle" xml:space="preserve" id="svg_18">47</text>
  <line id="svg_25" y2="273" x2="535" y1="271" x1="200" stroke-linecap="null" stroke-linejoin="null" stroke-dasharray="null" stroke-width="2" stroke="#007f00" fill="none"/>
  <text font-weight="bold" stroke="#00007f" transform="matrix(0.6870095831605677,0,0,0.6986218890997963,175.5708031859369,79.44468245105786) " xml:space="preserve" text-anchor="middle" font-family="serif" font-size="24" id="svg_28" y="258.568611" x="471.455584" stroke-linecap="null" stroke-linejoin="null" stroke-dasharray="null" stroke-width="0" fill="#007f00">lat &gt; -48</text>
  <line fill="none" stroke="#007fff" stroke-width="2" stroke-dasharray="null" stroke-linejoin="null" stroke-linecap="null" x1="401" y1="299" x2="99" y2="299" id="svg_10"/>
  <text font-weight="bold" stroke="#00ff00" transform="matrix(0.6870095831605677,0,0,0.6986218890997963,175.5708031859369,79.44468245105786) " xml:space="preserve" text-anchor="middle" font-family="serif" font-size="24" y="302.167214" x="-69.007672" stroke-linecap="null" stroke-linejoin="null" stroke-dasharray="null" stroke-width="0" fill="#007fff" id="svg_26">lat &lt; 48</text>
  <text font-weight="bold" stroke="#00ff00" transform="matrix(0.8594036614484684,0,0,0.7801205126776902,151.87770940975958,81.33677869061701) " xml:space="preserve" text-anchor="middle" font-family="serif" font-size="24" y="76.596296" x="253.828133" stroke-linecap="null" stroke-linejoin="null" stroke-dasharray="null" stroke-width="0" fill="#007fff" id="svg_37">lat &lt; 48</text>
  <text font-weight="bold" stroke="#00007f" transform="matrix(0.7789888175629864,0,0,0.8196877687330906,12.599116284546298,64.75050493080819) " xml:space="preserve" text-anchor="middle" font-family="serif" font-size="24" y="94.113487" x="276.550475" stroke-linecap="null" stroke-linejoin="null" stroke-dasharray="null" stroke-width="0" fill="#007f00" id="svg_38">lat &gt; -48</text>
  <text fill="#ff0000" stroke-width="0" stroke-dasharray="null" stroke-linejoin="null" stroke-linecap="null" x="310.295454" y="140.25" id="svg_39" font-size="24" font-family="serif" text-anchor="middle" xml:space="preserve" transform="matrix(0.696579036852865,0,0,0.8047621410291403,84.19778250262411,27.56242903037387) " stroke="#ff0000">AND</text>
  <text font-weight="bold" stroke="#ff0000" transform="matrix(0.440104347658945,0,0,0.6346153914928435,171.928330176154,81.61538228392601) " fill="#000000" stroke-width="0" stroke-dasharray="null" stroke-linejoin="null" stroke-linecap="null" x="293.911246" y="329.272727" id="svg_40" font-size="24" font-family="serif" text-anchor="middle" xml:space="preserve">OR</text>
  <text stroke="#0000bf" transform="matrix(0.569407105974955,0,0,0.7734893759191063,23.256280745066213,28.676858108740255) " fill="#000000" stroke-width="0" stroke-dasharray="null" stroke-linejoin="null" stroke-linecap="null" x="834.627884" y="144.266096" font-size="24" font-family="serif" text-anchor="middle" xml:space="preserve" id="svg_41">North pole</text>
 </g>
</svg>
