<?xml version="1.0" encoding="UTF-8" standalone="no"?>
<!DOCTYPE svg PUBLIC "-//W3C//DTD SVG 1.1//EN"
 "http://www.w3.org/Graphics/SVG/1.1/DTD/svg11.dtd">
<!-- Generated by graphviz version 2.38.0 (20140413.2041)
 -->
<!-- Title: G Pages: 1 -->
<svg width="269pt" height="382pt"
 viewBox="0.00 0.00 269.00 382.00" xmlns="http://www.w3.org/2000/svg" xmlns:xlink="http://www.w3.org/1999/xlink">
<g id="graph0" class="graph" transform="scale(1 1) rotate(0) translate(4 378)">
<title>G</title>
<polygon fill="white" stroke="none" points="-4,4 -4,-378 265,-378 265,4 -4,4"/>
<!-- Person -->
<g id="node1" class="node"><title>Person</title>
<polygon fill="none" stroke="black" points="0,-152.5 0,-244.5 101,-244.5 101,-152.5 0,-152.5"/>
<text text-anchor="middle" x="50.5" y="-229.3" font-family="Times New Roman,serif" font-size="14.00">Person</text>
<polyline fill="none" stroke="black" points="0,-221.5 101,-221.5 "/>
<text text-anchor="middle" x="22.5" y="-206.3" font-family="Times New Roman,serif" font-size="14.00">id</text>
<polyline fill="none" stroke="black" points="45,-198.5 45,-221.5 "/>
<text text-anchor="middle" x="73" y="-206.3" font-family="Times New Roman,serif" font-size="14.00">text</text>
<polyline fill="none" stroke="black" points="0,-198.5 101,-198.5 "/>
<text text-anchor="middle" x="32" y="-183.3" font-family="Times New Roman,serif" font-size="14.00">personal</text>
<polyline fill="none" stroke="black" points="64,-175.5 64,-198.5 "/>
<text text-anchor="middle" x="82.5" y="-183.3" font-family="Times New Roman,serif" font-size="14.00">text</text>
<polyline fill="none" stroke="black" points="0,-175.5 101,-175.5 "/>
<text text-anchor="middle" x="28.5" y="-160.3" font-family="Times New Roman,serif" font-size="14.00">family</text>
<polyline fill="none" stroke="black" points="57,-152.5 57,-175.5 "/>
<text text-anchor="middle" x="79" y="-160.3" font-family="Times New Roman,serif" font-size="14.00">text</text>
</g>
<!-- Survey -->
<g id="node4" class="node"><title>Survey</title>
<polygon fill="none" stroke="black" points="162,-0.5 162,-115.5 261,-115.5 261,-0.5 162,-0.5"/>
<text text-anchor="middle" x="211.5" y="-100.3" font-family="Times New Roman,serif" font-size="14.00">Survey</text>
<polyline fill="none" stroke="black" points="162,-92.5 261,-92.5 "/>
<text text-anchor="middle" x="185" y="-77.3" font-family="Times New Roman,serif" font-size="14.00">taken</text>
<polyline fill="none" stroke="black" points="208,-69.5 208,-92.5 "/>
<text text-anchor="middle" x="234.5" y="-77.3" font-family="Times New Roman,serif" font-size="14.00">integer</text>
<polyline fill="none" stroke="black" points="162,-69.5 261,-69.5 "/>
<text text-anchor="middle" x="191" y="-54.3" font-family="Times New Roman,serif" font-size="14.00">person</text>
<polyline fill="none" stroke="black" points="220,-46.5 220,-69.5 "/>
<text text-anchor="middle" x="240.5" y="-54.3" font-family="Times New Roman,serif" font-size="14.00">text</text>
<polyline fill="none" stroke="black" points="162,-46.5 261,-46.5 "/>
<text text-anchor="middle" x="189" y="-31.3" font-family="Times New Roman,serif" font-size="14.00">quant</text>
<polyline fill="none" stroke="black" points="216,-23.5 216,-46.5 "/>
<text text-anchor="middle" x="238.5" y="-31.3" font-family="Times New Roman,serif" font-size="14.00">text</text>
<polyline fill="none" stroke="black" points="162,-23.5 261,-23.5 "/>
<text text-anchor="middle" x="192" y="-8.3" font-family="Times New Roman,serif" font-size="14.00">reading</text>
<polyline fill="none" stroke="black" points="222,-0.5 222,-23.5 "/>
<text text-anchor="middle" x="241.5" y="-8.3" font-family="Times New Roman,serif" font-size="14.00">real</text>
</g>
<!-- Person&#45;&gt;Survey -->
<g id="edge3" class="edge"><title>Person:id_end:e&#45;&gt;Survey:person:w</title>
<path fill="none" stroke="black" d="M102.5,-210.5C129.576,-210.5 110.291,-177.461 119.5,-152 133.67,-112.822 118.11,-66.7283 150.14,-59.0953"/>
<polygon fill="black" stroke="black" points="150.923,-62.532 160.5,-58 150.187,-55.5708 150.923,-62.532"/>
</g>
<!-- Site -->
<g id="node2" class="node"><title>Site</title>
<polygon fill="none" stroke="black" points="54,-281.5 54,-373.5 137,-373.5 137,-281.5 54,-281.5"/>
<text text-anchor="middle" x="95.5" y="-358.3" font-family="Times New Roman,serif" font-size="14.00">Site</text>
<polyline fill="none" stroke="black" points="54,-350.5 137,-350.5 "/>
<text text-anchor="middle" x="77" y="-335.3" font-family="Times New Roman,serif" font-size="14.00">name</text>
<polyline fill="none" stroke="black" points="100,-327.5 100,-350.5 "/>
<text text-anchor="middle" x="118.5" y="-335.3" font-family="Times New Roman,serif" font-size="14.00">text</text>
<polyline fill="none" stroke="black" points="54,-327.5 137,-327.5 "/>
<text text-anchor="middle" x="73" y="-312.3" font-family="Times New Roman,serif" font-size="14.00">lat</text>
<polyline fill="none" stroke="black" points="92,-304.5 92,-327.5 "/>
<text text-anchor="middle" x="114.5" y="-312.3" font-family="Times New Roman,serif" font-size="14.00">real</text>
<polyline fill="none" stroke="black" points="54,-304.5 137,-304.5 "/>
<text text-anchor="middle" x="76" y="-289.3" font-family="Times New Roman,serif" font-size="14.00">long</text>
<polyline fill="none" stroke="black" points="98,-281.5 98,-304.5 "/>
<text text-anchor="middle" x="117.5" y="-289.3" font-family="Times New Roman,serif" font-size="14.00">real</text>
</g>
<!-- Visited -->
<g id="node3" class="node"><title>Visited</title>
<polygon fill="none" stroke="black" points="137.5,-152.5 137.5,-244.5 221.5,-244.5 221.5,-152.5 137.5,-152.5"/>
<text text-anchor="middle" x="179.5" y="-229.3" font-family="Times New Roman,serif" font-size="14.00">Visited</text>
<polyline fill="none" stroke="black" points="137.5,-221.5 221.5,-221.5 "/>
<text text-anchor="middle" x="156" y="-206.3" font-family="Times New Roman,serif" font-size="14.00">id</text>
<polyline fill="none" stroke="black" points="174.5,-198.5 174.5,-221.5 "/>
<text text-anchor="middle" x="198" y="-206.3" font-family="Times New Roman,serif" font-size="14.00">text</text>
<polyline fill="none" stroke="black" points="137.5,-198.5 221.5,-198.5 "/>
<text text-anchor="middle" x="158" y="-183.3" font-family="Times New Roman,serif" font-size="14.00">site</text>
<polyline fill="none" stroke="black" points="178.5,-175.5 178.5,-198.5 "/>
<text text-anchor="middle" x="200" y="-183.3" font-family="Times New Roman,serif" font-size="14.00">text</text>
<polyline fill="none" stroke="black" points="137.5,-175.5 221.5,-175.5 "/>
<text text-anchor="middle" x="161" y="-160.3" font-family="Times New Roman,serif" font-size="14.00">dated</text>
<polyline fill="none" stroke="black" points="184.5,-152.5 184.5,-175.5 "/>
<text text-anchor="middle" x="203" y="-160.3" font-family="Times New Roman,serif" font-size="14.00">text</text>
</g>
<!-- Site&#45;&gt;Visited -->
<g id="edge1" class="edge"><title>Site:name_end:e&#45;&gt;Visited:site:w</title>
<path fill="none" stroke="black" d="M138.5,-339.5C168.385,-339.5 117.926,-221.311 128.353,-192.687"/>
<polygon fill="black" stroke="black" points="130.653,-195.336 136.5,-186.5 126.42,-189.761 130.653,-195.336"/>
</g>
<!-- Visited&#45;&gt;Survey -->
<g id="edge2" class="edge"><title>Visited:id_end:e&#45;&gt;Survey:taken:w</title>
<path fill="none" stroke="black" d="M222.5,-210.5C248.504,-210.5 234.505,-174.518 221.5,-152 205.947,-125.07 177.207,-142.84 161.5,-116 156.158,-106.871 150.426,-93.9826 152.189,-86.6626"/>
<polygon fill="black" stroke="black" points="154.207,-89.5233 160.5,-81 150.265,-83.7385 154.207,-89.5233"/>
</g>
</g>
</svg>
